<svg xmlns="http://www.w3.org/2000/svg" xmlns:xlink="http://www.w3.org/1999/xlink" viewBox="0 0 235.25 114.48"><defs><style>.cls-1{fill:#0b8cd3;}.cls-2{fill:url(#linear-gradient);}.cls-3,.cls-8{fill:#0071bc;}.cls-4{fill:url(#linear-gradient-2);}.cls-5{fill:url(#linear-gradient-3);}.cls-6{fill:url(#linear-gradient-4);}.cls-7{fill:#fff;}.cls-8{font-size:27px;font-family:AquireRegular, Aquire;letter-spacing:0.04em;}.cls-9{letter-spacing:-0.05em;}.cls-10{letter-spacing:-0.27em;}.cls-11{fill:#29abe2;}.cls-12{fill:url(#linear-gradient-5);}</style><linearGradient id="linear-gradient" x1="63.63" y1="109.3" x2="104.11" y2="55.96" gradientUnits="userSpaceOnUse"><stop offset="0" stop-color="#0b8cd3"/><stop offset="1" stop-color="#0051bc"/></linearGradient><linearGradient id="linear-gradient-2" x1="82.56" y1="49.85" x2="86.06" y2="56.7" gradientUnits="userSpaceOnUse"><stop offset="0" stop-color="#0071bc"/><stop offset="1" stop-color="#0051bc"/></linearGradient><linearGradient id="linear-gradient-3" x1="60.68" y1="44.71" x2="74.24" y2="21.47" xlink:href="#linear-gradient-2"/><linearGradient id="linear-gradient-4" x1="35.17" y1="75.14" x2="39.6" y2="81.72" xlink:href="#linear-gradient-2"/><linearGradient id="linear-gradient-5" x1="34" y1="110.98" x2="41" y2="110.98" xlink:href="#linear-gradient-2"/></defs><title>logopfe</title><g id="object"><path class="cls-1" d="M50.42,91.67A22.13,22.13,0,0,1,43,95l-2.68.65a1.91,1.91,0,0,1-.52.07,2.16,2.16,0,0,1-1.38-3.82L53.28,79.42l-6.6,2.21L36.44,85C34.83,86.9,34,89.61,35.27,93.5l.95,1.88s12.9,26.34,13.39,27.18a9.87,9.87,0,0,0,17.5-.82c.28-.6,22.3-44.92,22.3-44.92l0,0,1.93-3.83a35.87,35.87,0,0,0,2.21-7.07l-11.85,4Z" transform="translate(-22 -22.52)"/><path class="cls-2" d="M45.94,115.18c2,4,3.51,7.1,3.67,7.38a9.87,9.87,0,0,0,17.5-.82c.28-.6,22.3-44.92,22.3-44.92l0,0,1.93-3.83a35.87,35.87,0,0,0,2.21-7.07l-9,3C81,77.59,69.32,102.56,45.94,115.18Z" transform="translate(-22 -22.52)"/><path class="cls-3" d="M58.15,22.52a36.17,36.17,0,0,0-33.8,49c.64,1.47,3,5.48,9.73,5l6.31-2.75A19.4,19.4,0,1,1,76,58.32l17.45-7.6A36.16,36.16,0,0,0,58.15,22.52Z" transform="translate(-22 -22.52)"/><path class="cls-4" d="M76,58.32l17.45-7.6a36.43,36.43,0,0,0-2-6.22L72.62,53.06A19.38,19.38,0,0,1,76,58.32Z" transform="translate(-22 -22.52)"/><path class="cls-5" d="M58.15,22.52A36.15,36.15,0,0,0,22,58.67,37.08,37.08,0,0,0,22.56,65c-.29-5.6,8.61-35.63,37.06-33.46a26.53,26.53,0,0,1,24.62,22.6l9.18-3.46A36.16,36.16,0,0,0,58.15,22.52Z" transform="translate(-22 -22.52)"/><path class="cls-6" d="M34.08,76.56l6.31-2.75a19.08,19.08,0,0,1-1.49-5.43c-4.95,2.24-9.3,4.21-12.71,5.74C27.66,75.52,30.11,76.81,34.08,76.56Z" transform="translate(-22 -22.52)"/><path class="cls-7" d="M42.36,92.6a19.86,19.86,0,0,0,6.63-3L73.22,72.73,59.78,77.24,41.14,92.89Z" transform="translate(-22 -22.52)"/><path class="cls-7" d="M62.6,74.88,57.34,79.3l12.47-4.2L77.17,70Z" transform="translate(-22 -22.52)"/><path class="cls-1" d="M160.77,38.42c-1.27-2.12-4.35-3.38-8.32-4.07-.5-.09-1-.17-1.53-.23a93.37,93.37,0,0,0-18.55,0,28.62,28.62,0,0,0-9.18,2.3l-92,40.06a19.59,19.59,0,0,0,9.47-1.38L124.19,38.7a26,26,0,0,1,8.38-2.1,116.86,116.86,0,0,1,12.63-.4L129,42.09A1.5,1.5,0,0,0,129.5,45a1.52,1.52,0,0,0,.51-.09l22-8,.18-.08c3.36.58,5.57,1.53,6.39,2.83,0,.17-.32,1-2.53,2.74a15.92,15.92,0,0,1-4.87,2.66c-7.86,2.67-37.62,12.68-65.51,22.06l-7.36,5.13c30-10.08,65-21.87,73.67-24.81a18.4,18.4,0,0,0,5.64-3.07c1-.82,3.49-2.78,3.49-4.75A2.33,2.33,0,0,0,160.77,38.42Z" transform="translate(-22 -22.52)"/><path class="cls-1" d="M35.35,86.69l15.47-5.2,5.26-4.42L39.56,82.62A9.38,9.38,0,0,0,35.35,86.69Z" transform="translate(-22 -22.52)"/><path class="cls-1" d="M41.14,92.89l1.22-.29a19.86,19.86,0,0,0,6.63-3L92,59.66a.36.36,0,0,0-.35-.63L72.19,67a2,2,0,0,0-.52.32Z" transform="translate(-22 -22.52)"/><g id="Title"><text x="-22" y="-22.52"/><text class="cls-8" transform="translate(80.51 80.15)">MEDI<tspan class="cls-9" x="65.99" y="0">C</tspan><tspan class="cls-10" x="84.72" y="0">A</tspan><tspan class="cls-11" x="100.41" y="0">VIA</tspan></text></g><circle class="cls-12" cx="37.5" cy="110.98" r="3.5"/></g></svg>